<?xml version="1.0" standalone="no"?>
<!DOCTYPE svg PUBLIC "-//W3C//DTD SVG 20010904//EN"
 "http://www.w3.org/TR/2001/REC-SVG-20010904/DTD/svg10.dtd">
<svg version="1.0" xmlns="http://www.w3.org/2000/svg"
 width="700.000000pt" height="700.000000pt" viewBox="0 0 700.000000 700.000000"
 preserveAspectRatio="xMidYMid meet">
<metadata>
Created by potrace 1.14, written by Peter Selinger 2001-2017
</metadata>
<g transform="translate(0.000000,700.000000) scale(0.100000,-0.100000)"
fill="#000000" stroke="none">
<path d="M3593 5933 c-12 -38 -51 -161 -87 -274 l-66 -205 -1702 0 c-937 1
-1710 0 -1719 -2 -14 -3 -4 -31 53 -155 38 -84 89 -195 113 -247 24 -52 62
-135 84 -183 23 -49 41 -90 41 -92 0 -2 20 -45 44 -97 53 -114 72 -155 196
-428 138 -303 253 -555 285 -625 63 -138 144 -313 163 -355 11 -25 37 -81 57
-125 20 -44 105 -228 187 -410 83 -181 170 -372 194 -424 24 -51 44 -95 44
-97 0 -1 25 -55 55 -119 30 -65 55 -118 55 -120 0 -2 20 -45 44 -97 24 -51 53
-115 66 -143 12 -27 33 -74 46 -103 13 -28 36 -78 50 -110 14 -31 36 -79 49
-107 13 -27 37 -81 55 -120 18 -38 52 -113 76 -166 24 -53 44 -104 44 -113 0
-15 43 -16 504 -16 l504 0 17 53 c9 28 19 59 22 67 3 8 7 20 9 25 1 6 22 73
47 150 25 77 75 235 112 350 83 261 122 384 145 455 10 30 44 136 75 235 31
99 60 191 65 205 10 29 132 413 220 690 34 107 68 213 75 235 8 22 29 90 48
150 19 61 64 202 100 315 171 536 211 664 247 775 21 66 82 257 135 425 53
168 119 373 145 455 87 269 130 406 130 410 0 3 -226 5 -503 5 l-502 0 -22
-67z"/>
<path d="M4745 5818 c-32 -101 -60 -187 -61 -193 -1 -5 -24 -80 -52 -165 -51
-156 -126 -391 -267 -835 -42 -132 -82 -258 -90 -280 -7 -22 -37 -114 -65
-205 -28 -91 -64 -203 -80 -250 -15 -47 -53 -166 -85 -265 -31 -99 -76 -241
-100 -315 -24 -74 -76 -236 -115 -360 -39 -124 -75 -236 -80 -250 -5 -14 -39
-119 -75 -235 -37 -115 -98 -309 -137 -430 -105 -329 -149 -467 -228 -715 -39
-124 -78 -242 -86 -263 -8 -20 -14 -42 -14 -47 0 -6 182 -10 504 -10 l504 0
15 48 c9 26 36 110 60 187 25 77 68 214 97 305 28 91 58 183 65 205 8 22 46
141 85 265 39 124 77 243 85 265 7 22 37 114 65 205 28 91 72 228 97 305 25
77 60 187 78 245 19 58 68 213 110 344 43 132 78 244 79 250 1 6 33 106 70
221 134 416 155 483 221 690 93 294 195 614 272 855 36 113 84 261 105 330 22
69 51 158 64 199 13 40 24 75 24 77 0 2 -226 4 -503 4 l-503 0 -59 -182z"/>
<path d="M5955 5883 c-20 -65 -59 -185 -85 -268 -73 -228 -142 -444 -195 -610
-26 -82 -56 -175 -66 -205 -10 -30 -50 -156 -89 -280 -78 -246 -108 -341 -150
-470 -16 -47 -42 -128 -58 -180 -17 -52 -58 -183 -92 -290 -33 -107 -65 -206
-70 -220 -5 -14 -43 -133 -85 -265 -171 -536 -229 -716 -270 -845 -24 -74 -75
-236 -114 -360 -40 -124 -78 -243 -86 -265 -7 -22 -41 -128 -75 -235 -34 -107
-75 -235 -91 -283 -16 -49 -29 -93 -29 -98 0 -5 210 -9 503 -9 l503 0 50 152
c27 84 49 155 50 158 0 3 3 12 7 20 3 8 12 38 21 65 23 77 146 465 161 510 7
22 46 141 85 265 39 124 89 279 110 345 57 181 169 531 191 605 11 36 24 74
29 85 4 11 15 43 23 70 20 67 136 434 147 465 5 14 34 106 65 205 31 99 65
205 75 235 10 30 48 150 85 265 36 116 72 228 80 250 7 22 37 114 65 205 49
157 92 293 180 565 21 66 66 207 100 314 34 107 64 201 67 208 4 11 -86 13
-500 13 l-505 0 -37 -117z"/>
</g>
</svg>
