<svg width="16" height="10" viewBox="0 0 16 10" fill="none" xmlns="http://www.w3.org/2000/svg">
<path d="M8.92431 9.62297L15.6098 2.98394C15.87 2.73945 16 2.43414 16 2.06742C16 1.70069 15.8698 1.39539 15.6098 1.15089L14.8395 0.376996C14.5861 0.12576 14.2782 0.000142512 13.9153 0.000142496C13.5593 0.000142481 13.2477 0.125725 12.9808 0.376996L7.99996 5.32585L3.00887 0.376782C2.75554 0.125617 2.4476 -5.96508e-07 2.0847 -6.12481e-07C1.72874 -6.28149e-07 1.41703 0.125582 1.1502 0.376782L0.379985 1.15075C0.12665 1.40195 -7.41258e-08 1.70758 -8.97402e-08 2.06727C-1.05361e-07 2.42711 0.12665 2.73267 0.379985 2.9838L7.06547 9.62297C7.33247 9.87427 7.64401 10 8 10C8.36286 10 8.67098 9.87427 8.92431 9.62297Z" fill="#333333"/>
</svg>
