<svg width="30" height="30" viewBox="0 0 30 30" fill="none" xmlns="http://www.w3.org/2000/svg">
<g clip-path="url(#clip0_713_1340)">
<path d="M27.5945 11.2602L25.6651 9.33001V5.50518C25.6651 4.2127 24.6136 3.16118 23.3211 3.16118H19.5004L16.5134 0.172401C16.4035 0.0625262 16.2545 0.000703201 16.0991 0.0006446L13.9161 0C13.916 0 13.9159 0 13.9159 0C13.7605 0 13.6115 0.0617059 13.5016 0.171522L10.5101 3.16124H6.67872C5.38624 3.16124 4.33472 4.21276 4.33472 5.50524V9.33616L2.40666 11.2598C1.83619 11.8299 1.52197 12.5882 1.52197 13.3948V26.9815C1.52197 27.7946 1.84568 28.533 2.37027 29.0763C2.38158 29.0898 2.39336 29.1031 2.40607 29.1159C2.41873 29.1286 2.43197 29.1402 2.44545 29.1515C2.98873 29.6762 3.72727 30 4.54046 30H12.363C12.6866 30 12.949 29.7376 12.949 29.414C12.949 29.0904 12.6866 28.828 12.363 28.828H4.5404C4.24465 28.828 3.96518 28.7577 3.71707 28.6336L10.6242 21.7264L12.8729 23.9738C13.443 24.5436 14.2007 24.8573 15.0066 24.8573H15.0075C15.8138 24.857 16.5717 24.5428 17.1416 23.9725L19.381 21.7318L26.2828 28.6336C26.0347 28.7577 25.7552 28.828 25.4594 28.828H17.637C17.3133 28.828 17.051 29.0904 17.051 29.414C17.051 29.7376 17.3133 30 17.637 30H25.4596C26.2726 30 27.0112 29.6762 27.5545 29.1516C27.568 29.1403 27.5813 29.1286 27.594 29.1159C27.6067 29.1031 27.6184 29.0898 27.6298 29.0762C28.1543 28.5329 28.4781 27.7945 28.4781 26.9815V13.3939C28.478 12.5881 28.1642 11.8303 27.5945 11.2602ZM25.6652 10.9878L26.7655 12.0887C26.8671 12.1903 26.955 12.302 27.0291 12.4211L25.6652 13.7859V10.9878ZM14.1584 1.17206L15.856 1.17265L17.8434 3.16124H12.168L14.1584 1.17206ZM3.23479 12.0891L4.33477 10.9917V13.784L2.97121 12.4213C3.04534 12.3023 3.13324 12.1906 3.23479 12.0891ZM2.88835 27.8048C2.76424 27.5568 2.69397 27.2773 2.69397 26.9816V13.8011L9.79525 20.8979L2.88835 27.8048ZM16.3127 23.1441C15.9641 23.4929 15.5005 23.6851 15.0072 23.6853C15.0071 23.6853 15.0069 23.6853 15.0067 23.6853C14.5137 23.6853 14.0502 23.4933 13.7015 23.1448L5.50678 14.9552V5.50518C5.50678 4.85894 6.03254 4.33318 6.67878 4.33318H23.3212C23.9674 4.33318 24.4932 4.85894 24.4932 5.50518V9.49784C24.4876 9.54442 24.4876 9.59142 24.4932 9.63801V14.9585L16.3127 23.1441ZM27.306 26.9816C27.306 27.2773 27.2357 27.5568 27.1116 27.8048L20.2096 20.9028L27.306 13.8021V26.9816Z" fill="#333333"/>
<path d="M14.9999 28.8279C14.8458 28.8279 14.6946 28.8906 14.5856 28.9996C14.4766 29.1086 14.4139 29.2598 14.4139 29.4139C14.4139 29.568 14.4766 29.7192 14.5856 29.8282C14.6946 29.9378 14.8458 29.9999 14.9999 29.9999C15.1541 29.9999 15.3052 29.9378 15.4142 29.8282C15.5232 29.7192 15.5859 29.568 15.5859 29.4139C15.5859 29.2598 15.5232 29.1086 15.4142 28.9996C15.3052 28.8906 15.1541 28.8279 14.9999 28.8279Z" fill="#333333"/>
<path d="M15 6.79077C11.9492 6.79077 9.46716 9.27272 9.46716 12.3236C9.46716 15.4161 11.9832 17.9321 15.0757 17.9321H18.6374C18.961 17.9321 19.2234 17.6697 19.2234 17.3461C19.2234 17.0225 18.961 16.7601 18.6374 16.7601H15.0757C12.6294 16.7601 10.6392 14.7699 10.6392 12.3236C10.6392 9.91902 12.5954 7.96277 15 7.96277C17.4046 7.96277 19.3608 9.91902 19.3608 12.3236V13.5244C19.3608 13.986 18.9853 14.3614 18.5238 14.3614C18.0623 14.3614 17.6868 13.986 17.6868 13.5244V12.168C17.6868 10.5636 16.3815 9.25836 14.7771 9.25836C13.09 9.25836 11.7175 10.6309 11.7175 12.318C11.7175 14.005 13.0901 15.3776 14.7771 15.3776H15.7093C16.0329 15.3776 16.2953 15.1151 16.2953 14.7916C16.2953 14.468 16.0329 14.2056 15.7093 14.2056H14.7771C13.7363 14.2056 12.8895 13.3588 12.8895 12.3179C12.8895 11.2771 13.7363 10.4304 14.7771 10.4304C15.7353 10.4304 16.5148 11.2099 16.5148 12.168V13.5244C16.5148 14.6322 17.416 15.5334 18.5238 15.5334C19.6316 15.5334 20.5328 14.6322 20.5328 13.5244V12.3236C20.5328 9.27272 18.0508 6.79077 15 6.79077Z" fill="#333333"/>
</g>
<defs>
<clipPath id="clip0_713_1340">
<rect width="30" height="30" fill="white"/>
</clipPath>
</defs>
</svg>
