<svg width="265" height="46" viewBox="0 0 265 46" fill="none" xmlns="http://www.w3.org/2000/svg">
<path d="M23.6727 4.98462H0L19.6395 45.599L23.6727 4.98462Z" fill="#105A2C"/>
<path d="M33.688 4.98462H23.5709L19.4844 45.599L33.688 4.98462Z" fill="#0B3F1F"/>
<path d="M44.6138 0H34.8919L19.4844 45.5989H29.2394L44.6138 0Z" fill="#4A9D43"/>
<path d="M56.086 0H46.3641L30.9565 45.5989H40.7116L56.086 0Z" fill="#4A9D43"/>
<path d="M67.5582 0H57.8362L42.4287 45.5989H52.1838L67.5582 0Z" fill="#4A9D43"/>
<path d="M249.092 24.6233C248.898 24.6233 248.743 24.5649 248.626 24.4482C248.509 24.3315 248.451 24.1856 248.451 24.0105V10.0025C248.451 9.84684 248.509 9.72038 248.626 9.6231C248.762 9.50637 248.898 9.448 249.034 9.448H251.481C251.811 9.448 252.064 9.61337 252.239 9.94411L256.726 18.1154L261.213 9.94411C261.387 9.61337 261.64 9.448 261.97 9.448H264.388C264.563 9.448 264.709 9.50637 264.825 9.6231C264.942 9.72038 265 9.84684 265 10.0025V24.0105C265 24.1856 264.942 24.3315 264.825 24.4482C264.709 24.5649 264.553 24.6233 264.359 24.6233H261.854C261.659 24.6233 261.504 24.5649 261.387 24.4482C261.29 24.3315 261.242 24.1856 261.242 24.0105V13.4169L262.436 13.6212L258.124 21.5882C258.027 21.7633 257.911 21.9287 257.775 22.0844C257.639 22.2205 257.444 22.2886 257.192 22.2886H256.23C255.997 22.2886 255.813 22.2205 255.677 22.0844C255.541 21.9482 255.424 21.7828 255.327 21.5882L251.103 13.9422L252.21 13.7671V24.0105C252.21 24.1856 252.151 24.3315 252.035 24.4482C251.918 24.5649 251.773 24.6233 251.598 24.6233H249.092Z" fill="#105A2C"/>
<path d="M231.842 24.6233C231.668 24.6233 231.512 24.5553 231.376 24.4191C231.24 24.2829 231.172 24.1272 231.172 23.9521V10.1484C231.172 9.95388 231.24 9.78851 231.376 9.65232C231.512 9.51613 231.677 9.44804 231.872 9.44804H234.29C234.504 9.44804 234.669 9.51613 234.785 9.65232C234.921 9.78851 234.989 9.95388 234.989 10.1484V21.6758L233.969 20.9463L241.982 9.91497C242.079 9.77878 242.186 9.67178 242.302 9.59396C242.419 9.49668 242.574 9.44804 242.768 9.44804H244.983C245.157 9.44804 245.313 9.51613 245.449 9.65232C245.585 9.76906 245.653 9.91497 245.653 10.0901V23.9229C245.653 24.1175 245.585 24.2829 245.449 24.4191C245.313 24.5553 245.148 24.6233 244.953 24.6233H242.535C242.322 24.6233 242.147 24.5553 242.011 24.4191C241.894 24.2829 241.836 24.1175 241.836 23.9229V12.9209L242.914 13.0668L234.843 24.1564C234.766 24.2731 234.659 24.3802 234.523 24.4774C234.406 24.5747 234.251 24.6233 234.057 24.6233H231.842ZM238.573 7.46358C237.407 7.46358 236.475 7.27875 235.776 6.90909C235.077 6.53944 234.572 6.06278 234.261 5.47912C233.969 4.87599 233.824 4.23396 233.824 3.55302C233.824 3.39737 233.872 3.27091 233.969 3.17364C234.066 3.0569 234.202 2.99854 234.377 2.99854H236.038C236.213 2.99854 236.349 3.0569 236.446 3.17364C236.543 3.27091 236.592 3.39737 236.592 3.55302C236.592 3.98104 236.728 4.37015 236.999 4.72035C237.271 5.05109 237.796 5.21647 238.573 5.21647C239.389 5.21647 239.923 5.05109 240.175 4.72035C240.428 4.37015 240.554 3.98104 240.554 3.55302C240.554 3.39737 240.603 3.27091 240.7 3.17364C240.797 3.0569 240.933 2.99854 241.108 2.99854H242.797C242.972 2.99854 243.108 3.0569 243.205 3.17364C243.302 3.27091 243.351 3.39737 243.351 3.55302C243.351 4.23396 243.196 4.87599 242.885 5.47912C242.574 6.06278 242.069 6.53944 241.37 6.90909C240.69 7.27875 239.758 7.46358 238.573 7.46358Z" fill="#105A2C"/>
<path d="M219.801 24.9152C218.791 24.9152 217.878 24.7207 217.062 24.3316C216.247 23.923 215.596 23.388 215.11 22.7265C214.644 22.0455 214.411 21.2868 214.411 20.4502C214.411 19.0883 214.955 18.0085 216.043 17.2108C217.15 16.3937 218.607 15.8489 220.413 15.5766L224.405 14.9929V14.3801C224.405 13.5629 224.201 12.9306 223.793 12.4831C223.385 12.0357 222.686 11.8119 221.695 11.8119C220.996 11.8119 220.423 11.9578 219.976 12.2497C219.549 12.5221 219.228 12.8917 219.015 13.3586C218.859 13.6116 218.636 13.738 218.344 13.738H216.043C215.829 13.738 215.664 13.6797 215.547 13.5629C215.45 13.4462 215.402 13.2905 215.402 13.096C215.421 12.7847 215.547 12.4053 215.781 11.9578C216.014 11.5104 216.383 11.0823 216.888 10.6738C217.393 10.2458 218.043 9.88583 218.84 9.594C219.636 9.30217 220.598 9.15625 221.724 9.15625C222.948 9.15625 223.977 9.31189 224.813 9.62318C225.667 9.91502 226.347 10.3139 226.852 10.8197C227.357 11.3255 227.726 11.9189 227.959 12.5999C228.192 13.2808 228.309 14.0007 228.309 14.7594V23.923C228.309 24.1175 228.241 24.2829 228.105 24.4191C227.969 24.5553 227.804 24.6234 227.61 24.6234H225.25C225.036 24.6234 224.861 24.5553 224.725 24.4191C224.609 24.2829 224.55 24.1175 224.55 23.923V22.7848C224.298 23.1545 223.958 23.5047 223.531 23.8354C223.103 24.1467 222.579 24.4094 221.957 24.6234C221.355 24.8179 220.636 24.9152 219.801 24.9152ZM220.792 22.1428C221.472 22.1428 222.084 21.9969 222.627 21.7051C223.191 21.4132 223.628 20.9658 223.938 20.3626C224.269 19.7401 224.434 18.9618 224.434 18.028V17.4151L221.52 17.8821C220.374 18.0571 219.52 18.3393 218.956 18.7284C218.393 19.1175 218.111 19.5941 218.111 20.1583C218.111 20.5864 218.238 20.956 218.49 21.2673C218.762 21.5591 219.102 21.7829 219.51 21.9385C219.918 22.0747 220.345 22.1428 220.792 22.1428Z" fill="#105A2C"/>
<path d="M206.51 24.9152C205.267 24.9152 204.218 24.7693 203.364 24.4775C202.528 24.1856 201.858 23.816 201.353 23.3685C200.868 22.921 200.508 22.4541 200.275 21.9677C200.062 21.4619 199.935 21.0047 199.896 20.5961C199.896 20.421 199.955 20.2848 200.071 20.1875C200.188 20.0903 200.314 20.0416 200.45 20.0416H202.839C203.033 20.0416 203.179 20.0805 203.276 20.1583C203.393 20.2362 203.49 20.3626 203.568 20.5377C203.762 21.1214 204.121 21.53 204.646 21.7634C205.189 21.9969 205.86 22.1136 206.656 22.1136C207.2 22.1136 207.685 22.0455 208.113 21.9093C208.54 21.7537 208.87 21.53 209.103 21.2381C209.336 20.9268 209.453 20.5475 209.453 20.1C209.453 19.4579 209.268 18.9716 208.899 18.6408C208.53 18.2906 207.928 18.1155 207.093 18.1155H205.491C205.296 18.1155 205.141 18.0572 205.024 17.9404C204.908 17.8237 204.85 17.668 204.85 17.4735V16.2478C204.85 16.0727 204.908 15.9268 205.024 15.81C205.141 15.6738 205.296 15.6058 205.491 15.6058H206.976C207.676 15.6058 208.2 15.4793 208.55 15.2264C208.899 14.954 209.074 14.5357 209.074 13.9715C209.074 13.6407 208.987 13.3295 208.812 13.0376C208.657 12.7263 208.394 12.4734 208.025 12.2789C207.656 12.0843 207.142 11.987 206.481 11.987C205.568 11.987 204.918 12.1329 204.529 12.4248C204.141 12.7166 203.859 13.1544 203.684 13.738C203.606 13.9131 203.509 14.0396 203.393 14.1174C203.296 14.1952 203.14 14.2341 202.927 14.2341H200.625C200.469 14.2341 200.334 14.1855 200.217 14.0882C200.12 13.9909 200.071 13.8548 200.071 13.6797C200.11 13.1544 200.246 12.6291 200.479 12.1038C200.732 11.559 201.11 11.0629 201.615 10.6154C202.14 10.1679 202.8 9.81774 203.597 9.56482C204.393 9.29244 205.364 9.15625 206.51 9.15625C208.064 9.15625 209.298 9.37026 210.21 9.79828C211.123 10.2263 211.774 10.7711 212.163 11.4325C212.57 12.0746 212.774 12.7458 212.774 13.4462C212.774 14.166 212.638 14.7886 212.367 15.3139C212.114 15.8392 211.638 16.2672 210.939 16.598C211.813 16.9287 212.415 17.4346 212.745 18.1155C213.075 18.7965 213.25 19.5455 213.27 20.3626C213.27 21.3354 212.988 22.1623 212.425 22.8432C211.861 23.5047 211.075 24.0203 210.065 24.3899C209.055 24.7401 207.87 24.9152 206.51 24.9152Z" fill="#105A2C"/>
<path d="M178.291 24.6233C178.116 24.6233 177.961 24.5553 177.825 24.4191C177.689 24.2829 177.621 24.1272 177.621 23.9521V10.1484C177.621 9.95388 177.689 9.78851 177.825 9.65232C177.961 9.51613 178.126 9.44804 178.32 9.44804H180.739C180.952 9.44804 181.117 9.51613 181.234 9.65232C181.37 9.78851 181.438 9.95388 181.438 10.1484V21.6758L180.418 20.9463L188.43 9.91497C188.528 9.77878 188.634 9.67178 188.751 9.59396C188.867 9.49668 189.023 9.44804 189.217 9.44804H191.431C191.606 9.44804 191.762 9.51613 191.898 9.65232C192.034 9.76906 192.101 9.91497 192.101 10.0901V23.9229C192.101 24.1175 192.034 24.2829 191.898 24.4191C191.762 24.5553 191.596 24.6233 191.402 24.6233H188.984C188.77 24.6233 188.596 24.5553 188.46 24.4191C188.343 24.2829 188.285 24.1175 188.285 23.9229V12.9209L189.363 13.0668L181.292 24.1564C181.214 24.2731 181.108 24.3802 180.972 24.4774C180.855 24.5747 180.7 24.6233 180.506 24.6233H178.291ZM185.022 7.46358C183.856 7.46358 182.924 7.27875 182.225 6.90909C181.525 6.53944 181.02 6.06278 180.709 5.47912C180.418 4.87599 180.272 4.23396 180.272 3.55302C180.272 3.39737 180.321 3.27091 180.418 3.17364C180.515 3.0569 180.651 2.99854 180.826 2.99854H182.487C182.662 2.99854 182.798 3.0569 182.895 3.17364C182.992 3.27091 183.04 3.39737 183.04 3.55302C183.04 3.98104 183.176 4.37015 183.448 4.72035C183.72 5.05109 184.245 5.21647 185.022 5.21647C185.837 5.21647 186.371 5.05109 186.624 4.72035C186.877 4.37015 187.003 3.98104 187.003 3.55302C187.003 3.39737 187.051 3.27091 187.148 3.17364C187.246 3.0569 187.382 2.99854 187.556 2.99854H189.246C189.421 2.99854 189.557 3.0569 189.654 3.17364C189.751 3.27091 189.8 3.39737 189.8 3.55302C189.8 4.23396 189.644 4.87599 189.334 5.47912C189.023 6.06278 188.518 6.53944 187.819 6.90909C187.139 7.27875 186.206 7.46358 185.022 7.46358Z" fill="#105A2C"/>
<path d="M161.012 24.6233C160.837 24.6233 160.682 24.5552 160.546 24.419C160.41 24.2828 160.342 24.1272 160.342 23.9521V10.1484C160.342 9.95384 160.41 9.78847 160.546 9.65228C160.682 9.51609 160.847 9.448 161.041 9.448H163.459C163.673 9.448 163.838 9.51609 163.955 9.65228C164.091 9.78847 164.159 9.95384 164.159 10.1484V21.6758L163.139 20.9462L171.151 9.91493C171.248 9.77874 171.355 9.67174 171.472 9.59391C171.588 9.49664 171.744 9.448 171.938 9.448H174.152C174.327 9.448 174.482 9.51609 174.618 9.65228C174.754 9.76901 174.822 9.91493 174.822 10.09V23.9229C174.822 24.1175 174.754 24.2828 174.618 24.419C174.482 24.5552 174.317 24.6233 174.123 24.6233H171.705C171.491 24.6233 171.316 24.5552 171.18 24.419C171.064 24.2828 171.005 24.1175 171.005 23.9229V12.9208L172.083 13.0667L164.013 24.1564C163.935 24.2731 163.828 24.3801 163.692 24.4774C163.576 24.5747 163.42 24.6233 163.226 24.6233H161.012Z" fill="#105A2C"/>
<path d="M138.356 24.6233C138.162 24.6233 137.997 24.5552 137.861 24.419C137.725 24.2828 137.657 24.1175 137.657 23.9229V10.1484C137.657 9.95384 137.725 9.78847 137.861 9.65228C137.997 9.51609 138.162 9.448 138.356 9.448H140.658C140.872 9.448 141.037 9.51609 141.153 9.65228C141.289 9.78847 141.357 9.95384 141.357 10.1484V21.5299H145.728V10.1484C145.728 9.95384 145.786 9.78847 145.903 9.65228C146.039 9.51609 146.213 9.448 146.427 9.448H148.525C148.738 9.448 148.904 9.51609 149.02 9.65228C149.156 9.78847 149.224 9.95384 149.224 10.1484V21.5299H153.594V10.1484C153.594 9.95384 153.653 9.78847 153.769 9.65228C153.905 9.51609 154.08 9.448 154.294 9.448H156.595C156.79 9.448 156.955 9.51609 157.091 9.65228C157.227 9.78847 157.295 9.95384 157.295 10.1484V23.9229C157.295 24.1175 157.227 24.2828 157.091 24.419C156.955 24.5552 156.79 24.6233 156.595 24.6233H138.356Z" fill="#105A2C"/>
<path d="M127.99 24.9152C126.436 24.9152 125.125 24.6428 124.056 24.0981C123.008 23.5533 122.202 22.7848 121.638 21.7926C121.094 20.8004 120.784 19.6428 120.706 18.3198C120.686 17.9696 120.677 17.5416 120.677 17.0357C120.677 16.5299 120.686 16.1019 120.706 15.7517C120.784 14.4092 121.104 13.2516 121.667 12.2789C122.25 11.2866 123.066 10.5181 124.115 9.97338C125.183 9.42863 126.475 9.15625 127.99 9.15625C129.505 9.15625 130.787 9.42863 131.836 9.97338C132.904 10.5181 133.72 11.2866 134.283 12.2789C134.866 13.2516 135.196 14.4092 135.274 15.7517C135.293 16.1019 135.303 16.5299 135.303 17.0357C135.303 17.5416 135.293 17.9696 135.274 18.3198C135.196 19.6428 134.875 20.8004 134.312 21.7926C133.768 22.7848 132.962 23.5533 131.894 24.0981C130.845 24.6428 129.544 24.9152 127.99 24.9152ZM127.99 22.0261C129.019 22.0261 129.816 21.7051 130.379 21.063C130.942 20.4015 131.253 19.4385 131.311 18.1739C131.331 17.8821 131.34 17.5027 131.34 17.0357C131.34 16.5688 131.331 16.1894 131.311 15.8976C131.253 14.6524 130.942 13.6991 130.379 13.0376C129.816 12.3761 129.019 12.0454 127.99 12.0454C126.96 12.0454 126.164 12.3761 125.601 13.0376C125.037 13.6991 124.727 14.6524 124.668 15.8976C124.649 16.1894 124.639 16.5688 124.639 17.0357C124.639 17.5027 124.649 17.8821 124.668 18.1739C124.727 19.4385 125.037 20.4015 125.601 21.063C126.164 21.7051 126.96 22.0261 127.99 22.0261Z" fill="#105A2C"/>
<path d="M104.995 30.1682C104.8 30.1682 104.635 30.1001 104.499 29.9639C104.363 29.8277 104.295 29.6624 104.295 29.4678V10.1485C104.295 9.95393 104.363 9.78855 104.499 9.65237C104.635 9.51618 104.8 9.44808 104.995 9.44808H107.296C107.51 9.44808 107.675 9.51618 107.792 9.65237C107.928 9.78855 107.996 9.95393 107.996 10.1485V11.3158C108.462 10.6932 109.074 10.1777 109.831 9.7691C110.589 9.36053 111.531 9.15625 112.657 9.15625C113.687 9.15625 114.58 9.32162 115.338 9.65237C116.095 9.98311 116.727 10.4598 117.232 11.0823C117.737 11.6855 118.125 12.4053 118.397 13.2419C118.669 14.0785 118.824 15.0026 118.863 16.0143C118.883 16.3451 118.892 16.6855 118.892 17.0357C118.892 17.3859 118.883 17.7361 118.863 18.0863C118.844 19.0591 118.698 19.9638 118.426 20.8004C118.154 21.6175 117.756 22.3374 117.232 22.9599C116.727 23.5631 116.095 24.0397 115.338 24.3899C114.58 24.7401 113.687 24.9152 112.657 24.9152C111.608 24.9152 110.715 24.7304 109.977 24.3607C109.239 23.9716 108.637 23.4658 108.17 22.8432V29.4678C108.17 29.6624 108.102 29.8277 107.966 29.9639C107.85 30.1001 107.685 30.1682 107.471 30.1682H104.995ZM111.579 21.7926C112.415 21.7926 113.065 21.6175 113.531 21.2673C113.998 20.8977 114.328 20.421 114.522 19.8373C114.736 19.2537 114.862 18.6116 114.901 17.9112C114.94 17.3276 114.94 16.7439 114.901 16.1602C114.862 15.4598 114.736 14.8178 114.522 14.2341C114.328 13.6505 113.998 13.1835 113.531 12.8333C113.065 12.4637 112.415 12.2789 111.579 12.2789C110.783 12.2789 110.132 12.4637 109.627 12.8333C109.142 13.203 108.782 13.6797 108.549 14.2633C108.336 14.8275 108.209 15.4112 108.17 16.0143C108.151 16.3645 108.141 16.7342 108.141 17.1233C108.141 17.5124 108.151 17.8918 108.17 18.2614C108.19 18.8451 108.326 19.4093 108.578 19.9541C108.831 20.4794 109.2 20.9171 109.685 21.2673C110.171 21.6175 110.802 21.7926 111.579 21.7926Z" fill="#105A2C"/>
<path d="M94.5992 24.9152C93.0453 24.9152 91.7342 24.6428 90.6659 24.0981C89.617 23.5533 88.8109 22.7848 88.2476 21.7926C87.7037 20.8004 87.393 19.6428 87.3153 18.3198C87.2958 17.9696 87.2861 17.5416 87.2861 17.0357C87.2861 16.5299 87.2958 16.1019 87.3153 15.7517C87.393 14.4092 87.7135 13.2516 88.2767 12.2789C88.8595 11.2866 89.6753 10.5181 90.7241 9.97338C91.7924 9.42863 93.0841 9.15625 94.5992 9.15625C96.1142 9.15625 97.3962 9.42863 98.4451 9.97338C99.5134 10.5181 100.329 11.2866 100.892 12.2789C101.475 13.2516 101.805 14.4092 101.883 15.7517C101.902 16.1019 101.912 16.5299 101.912 17.0357C101.912 17.5416 101.902 17.9696 101.883 18.3198C101.805 19.6428 101.485 20.8004 100.922 21.7926C100.378 22.7848 99.5716 23.5533 98.5033 24.0981C97.4545 24.6428 96.1531 24.9152 94.5992 24.9152ZM94.5992 22.0261C95.6286 22.0261 96.425 21.7051 96.9883 21.063C97.5516 20.4015 97.8624 19.4385 97.9206 18.1739C97.94 17.8821 97.9498 17.5027 97.9498 17.0357C97.9498 16.5688 97.94 16.1894 97.9206 15.8976C97.8624 14.6524 97.5516 13.6991 96.9883 13.0376C96.425 12.3761 95.6286 12.0454 94.5992 12.0454C93.5697 12.0454 92.7733 12.3761 92.21 13.0376C91.6468 13.6991 91.336 14.6524 91.2777 15.8976C91.2583 16.1894 91.2486 16.5688 91.2486 17.0357C91.2486 17.5027 91.2583 17.8821 91.2777 18.1739C91.336 19.4385 91.6468 20.4015 92.21 21.063C92.7733 21.7051 93.5697 22.0261 94.5992 22.0261Z" fill="#105A2C"/>
<path d="M68.6944 24.6236C68.5196 24.6236 68.3739 24.5652 68.2573 24.4485C68.1408 24.3318 68.0825 24.1859 68.0825 24.0108C68.0825 23.9524 68.0922 23.894 68.1117 23.8357C68.1311 23.7773 68.1505 23.7189 68.1699 23.6606L74.6963 14.2052L68.5778 5.15836C68.5196 5.04163 68.4904 4.92489 68.4904 4.80816C68.4904 4.63306 68.5487 4.48715 68.6652 4.37041C68.7818 4.25368 68.9177 4.19531 69.0731 4.19531H72.0741C72.3072 4.19531 72.4917 4.25368 72.6277 4.37041C72.7636 4.48715 72.8802 4.61361 72.9773 4.74979L77.2602 11.0534L81.5723 4.74979C81.65 4.61361 81.7568 4.48715 81.8928 4.37041C82.0482 4.25368 82.2424 4.19531 82.4755 4.19531H85.3017C85.4765 4.19531 85.6221 4.25368 85.7387 4.37041C85.8552 4.48715 85.9135 4.63306 85.9135 4.80816C85.9135 4.92489 85.8747 5.04163 85.797 5.15836L79.7076 14.2052L86.234 23.6606C86.2728 23.7189 86.302 23.7773 86.3214 23.8357C86.3408 23.894 86.3505 23.9524 86.3505 24.0108C86.3505 24.1859 86.2826 24.3318 86.1466 24.4485C86.03 24.5652 85.8941 24.6236 85.7387 24.6236H82.6503C82.4172 24.6236 82.2327 24.5652 82.0967 24.4485C81.9608 24.3318 81.8539 24.215 81.7762 24.0983L77.1146 17.5029L72.5403 24.0983C72.4626 24.215 72.3557 24.3318 72.2198 24.4485C72.0838 24.5652 71.8896 24.6236 71.6371 24.6236H68.6944Z" fill="#105A2C"/>
<path d="M257.371 43.2278C257.274 43.2278 257.196 43.1986 257.138 43.1402C257.079 43.0819 257.05 43.004 257.05 42.9068V35.9174C257.05 35.8396 257.079 35.7763 257.138 35.7277C257.206 35.6693 257.274 35.6401 257.342 35.6401H258.085C258.24 35.6401 258.361 35.718 258.449 35.8736L260.925 40.5137L263.416 35.8736C263.504 35.718 263.625 35.6401 263.781 35.6401H264.509C264.587 35.6401 264.655 35.6693 264.713 35.7277C264.771 35.7763 264.8 35.8396 264.8 35.9174V42.9068C264.8 43.004 264.771 43.0819 264.713 43.1402C264.655 43.1986 264.582 43.2278 264.494 43.2278H263.781C263.684 43.2278 263.606 43.1986 263.548 43.1402C263.489 43.0819 263.46 43.004 263.46 42.9068V37.0847L263.97 37.1431L261.595 41.6373C261.547 41.7346 261.489 41.8221 261.421 41.9C261.353 41.9778 261.251 42.0167 261.115 42.0167H260.736C260.61 42.0167 260.513 41.9778 260.445 41.9C260.377 41.8221 260.313 41.7346 260.255 41.6373L257.954 37.362L258.405 37.3182V42.9068C258.405 43.004 258.376 43.0819 258.318 43.1402C258.259 43.1986 258.182 43.2278 258.085 43.2278H257.371Z" fill="#105A2C"/>
<path d="M247.765 43.2275C247.677 43.2275 247.6 43.1983 247.532 43.1399C247.473 43.0718 247.444 42.9989 247.444 42.921V35.9754C247.444 35.8781 247.473 35.8003 247.532 35.742C247.6 35.6739 247.682 35.6398 247.779 35.6398H248.479C248.576 35.6398 248.653 35.6739 248.712 35.742C248.77 35.8003 248.799 35.8781 248.799 35.9754V42.1623L248.42 41.7683L252.834 35.8587C252.883 35.8003 252.936 35.7517 252.995 35.7128C253.053 35.6641 253.126 35.6398 253.213 35.6398H253.883C253.961 35.6398 254.029 35.669 254.087 35.7274C254.155 35.7857 254.189 35.8538 254.189 35.9316V42.8919C254.189 42.9891 254.155 43.0718 254.087 43.1399C254.029 43.1983 253.951 43.2275 253.854 43.2275H253.169C253.063 43.2275 252.98 43.1983 252.922 43.1399C252.864 43.0718 252.834 42.9891 252.834 42.8919V37.0698L253.242 37.0552L248.799 43.0086C248.76 43.0572 248.712 43.1059 248.653 43.1545C248.595 43.2031 248.517 43.2275 248.42 43.2275H247.765ZM250.853 34.633C250.29 34.633 249.848 34.5454 249.528 34.3703C249.207 34.1952 248.984 33.9715 248.857 33.6991C248.731 33.417 248.668 33.1252 248.668 32.8236C248.668 32.7458 248.687 32.6826 248.726 32.6339C248.775 32.5756 248.848 32.5464 248.945 32.5464H249.44C249.528 32.5464 249.596 32.5756 249.644 32.6339C249.693 32.6826 249.717 32.7458 249.717 32.8236C249.717 33.0474 249.79 33.2565 249.935 33.4511C250.091 33.6359 250.397 33.7283 250.853 33.7283C251.319 33.7283 251.625 33.6359 251.771 33.4511C251.917 33.2565 251.989 33.0474 251.989 32.8236C251.989 32.7458 252.014 32.6826 252.062 32.6339C252.111 32.5756 252.179 32.5464 252.266 32.5464H252.776C252.864 32.5464 252.932 32.5756 252.98 32.6339C253.029 32.6826 253.053 32.7458 253.053 32.8236C253.053 33.1252 252.985 33.417 252.849 33.6991C252.723 33.9715 252.499 34.1952 252.179 34.3703C251.858 34.5454 251.416 34.633 250.853 34.633Z" fill="#105A2C"/>
<path d="M240.79 43.3736C240.305 43.3736 239.863 43.2763 239.465 43.0818C239.067 42.8872 238.746 42.6246 238.503 42.2938C238.261 41.9631 238.139 41.5886 238.139 41.1703C238.139 40.4991 238.411 39.964 238.955 39.5652C239.499 39.1664 240.208 38.9037 241.082 38.7773L243.252 38.4708V38.0477C243.252 37.5807 243.116 37.216 242.845 36.9533C242.582 36.6907 242.15 36.5593 241.548 36.5593C241.111 36.5593 240.757 36.6469 240.485 36.822C240.222 36.9971 240.038 37.2208 239.931 37.4932C239.873 37.6391 239.771 37.7121 239.625 37.7121H238.97C238.863 37.7121 238.78 37.6829 238.722 37.6245C238.673 37.5564 238.649 37.4786 238.649 37.3911C238.649 37.2451 238.702 37.0652 238.809 36.8512C238.926 36.6372 239.101 36.428 239.334 36.2237C239.567 36.0194 239.863 35.8492 240.222 35.713C240.591 35.5671 241.038 35.4941 241.563 35.4941C242.145 35.4941 242.636 35.572 243.034 35.7276C243.432 35.8735 243.743 36.0729 243.966 36.3259C244.199 36.5788 244.364 36.8658 244.462 37.1868C244.568 37.5078 244.622 37.8337 244.622 38.1644V42.8921C244.622 42.9894 244.588 43.0721 244.52 43.1402C244.462 43.1985 244.384 43.2277 244.287 43.2277H243.617C243.51 43.2277 243.427 43.1985 243.369 43.1402C243.311 43.0721 243.282 42.9894 243.282 42.8921V42.2647C243.155 42.4398 242.985 42.6149 242.772 42.79C242.558 42.9553 242.291 43.0964 241.97 43.2131C241.65 43.3201 241.257 43.3736 240.79 43.3736ZM241.096 42.2793C241.495 42.2793 241.859 42.1966 242.189 42.0312C242.519 41.8561 242.777 41.5886 242.961 41.2287C243.155 40.8687 243.252 40.4164 243.252 39.8716V39.4631L241.563 39.7111C240.873 39.8084 240.353 39.9738 240.004 40.2072C239.654 40.431 239.479 40.7179 239.479 41.0681C239.479 41.3405 239.557 41.5691 239.712 41.754C239.878 41.9291 240.082 42.0604 240.324 42.1479C240.577 42.2355 240.834 42.2793 241.096 42.2793Z" fill="#105A2C"/>
<path d="M233.132 43.3736C232.559 43.3736 232.074 43.3055 231.676 43.1693C231.287 43.0234 230.971 42.8435 230.729 42.6295C230.496 42.4057 230.326 42.1771 230.219 41.9436C230.112 41.7005 230.054 41.4767 230.044 41.2724C230.044 41.1849 230.073 41.1168 230.131 41.0681C230.19 41.0098 230.258 40.9806 230.335 40.9806H231.02C231.107 40.9806 231.18 41.0049 231.239 41.0536C231.297 41.0925 231.34 41.1654 231.37 41.2724C231.486 41.6421 231.71 41.8999 232.04 42.0458C232.37 42.1917 232.773 42.2647 233.249 42.2647C233.56 42.2647 233.846 42.2258 234.108 42.1479C234.371 42.0604 234.575 41.9242 234.72 41.7394C234.876 41.5545 234.953 41.3259 234.953 41.0536C234.953 40.6547 234.837 40.3532 234.604 40.1489C234.38 39.9446 234.031 39.8424 233.555 39.8424H232.754C232.656 39.8424 232.579 39.8133 232.52 39.7549C232.462 39.6965 232.433 39.6187 232.433 39.5214V39.1275C232.433 39.0399 232.462 38.967 232.52 38.9086C232.579 38.8405 232.656 38.8064 232.754 38.8064H233.467C233.866 38.8064 234.171 38.7286 234.385 38.573C234.599 38.4173 234.706 38.1693 234.706 37.8288C234.706 37.6245 234.657 37.43 234.56 37.2451C234.463 37.0603 234.298 36.9095 234.065 36.7928C233.841 36.6663 233.531 36.6031 233.132 36.6031C232.569 36.6031 232.171 36.7004 231.938 36.8949C231.714 37.0798 231.554 37.357 231.457 37.7267C231.418 37.8337 231.37 37.9066 231.311 37.9455C231.263 37.9844 231.19 38.0039 231.093 38.0039H230.437C230.35 38.0039 230.277 37.9796 230.219 37.9309C230.16 37.8823 230.131 37.8142 230.131 37.7267C230.141 37.4348 230.204 37.1576 230.321 36.8949C230.447 36.6323 230.632 36.394 230.874 36.1799C231.127 35.9659 231.438 35.8006 231.807 35.6838C232.185 35.5574 232.627 35.4941 233.132 35.4941C233.861 35.4941 234.434 35.606 234.851 35.8297C235.279 36.0535 235.58 36.3307 235.755 36.6615C235.939 36.9825 236.031 37.3035 236.031 37.6245C236.031 38.0039 235.968 38.3201 235.842 38.573C235.725 38.8259 235.492 39.0399 235.143 39.215C235.58 39.3804 235.881 39.6284 236.046 39.9592C236.211 40.2899 236.298 40.6742 236.308 41.1119C236.318 41.6178 236.182 42.0361 235.9 42.3668C235.628 42.6975 235.254 42.9505 234.778 43.1256C234.303 43.2909 233.754 43.3736 233.132 43.3736Z" fill="#105A2C"/>
<path d="M216.91 43.2275C216.823 43.2275 216.745 43.1983 216.677 43.1399C216.619 43.0718 216.59 42.9989 216.59 42.921V35.9754C216.59 35.8781 216.619 35.8003 216.677 35.742C216.745 35.6739 216.828 35.6398 216.925 35.6398H217.624C217.721 35.6398 217.799 35.6739 217.857 35.742C217.916 35.8003 217.945 35.8781 217.945 35.9754V42.1623L217.566 41.7683L221.98 35.8587C222.028 35.8003 222.082 35.7517 222.14 35.7128C222.198 35.6641 222.271 35.6398 222.359 35.6398H223.029C223.107 35.6398 223.174 35.669 223.233 35.7274C223.301 35.7857 223.335 35.8538 223.335 35.9316V42.8919C223.335 42.9891 223.301 43.0718 223.233 43.1399C223.174 43.1983 223.097 43.2275 223 43.2275H222.315C222.208 43.2275 222.126 43.1983 222.067 43.1399C222.009 43.0718 221.98 42.9891 221.98 42.8919V37.0698L222.388 37.0552L217.945 43.0086C217.906 43.0572 217.857 43.1059 217.799 43.1545C217.741 43.2031 217.663 43.2275 217.566 43.2275H216.91ZM219.999 34.633C219.435 34.633 218.994 34.5454 218.673 34.3703C218.353 34.1952 218.129 33.9715 218.003 33.6991C217.877 33.417 217.814 33.1252 217.814 32.8236C217.814 32.7458 217.833 32.6826 217.872 32.6339C217.92 32.5756 217.993 32.5464 218.09 32.5464H218.586C218.673 32.5464 218.741 32.5756 218.79 32.6339C218.838 32.6826 218.862 32.7458 218.862 32.8236C218.862 33.0474 218.935 33.2565 219.081 33.4511C219.236 33.6359 219.542 33.7283 219.999 33.7283C220.465 33.7283 220.771 33.6359 220.916 33.4511C221.062 33.2565 221.135 33.0474 221.135 32.8236C221.135 32.7458 221.159 32.6826 221.208 32.6339C221.256 32.5756 221.324 32.5464 221.412 32.5464H221.922C222.009 32.5464 222.077 32.5756 222.126 32.6339C222.174 32.6826 222.198 32.7458 222.198 32.8236C222.198 33.1252 222.13 33.417 221.994 33.6991C221.868 33.9715 221.645 34.1952 221.324 34.3703C221.004 34.5454 220.562 34.633 219.999 34.633Z" fill="#105A2C"/>
<path d="M205.883 43.2278C205.786 43.2278 205.703 43.1986 205.635 43.1402C205.577 43.0721 205.548 42.9895 205.548 42.8922V35.9757C205.548 35.8785 205.577 35.8006 205.635 35.7423C205.703 35.6742 205.786 35.6401 205.883 35.6401H206.582C206.679 35.6401 206.757 35.6742 206.815 35.7423C206.883 35.8006 206.917 35.8785 206.917 35.9757V38.1207H208.432C209.423 38.1207 210.146 38.3542 210.603 38.8211C211.059 39.288 211.288 39.9204 211.288 40.718C211.288 41.5741 211.035 42.2064 210.53 42.6149C210.025 43.0235 209.267 43.2278 208.257 43.2278H205.883ZM206.903 42.1334H208.301C208.894 42.1334 209.326 42.0313 209.598 41.827C209.87 41.613 210.006 41.2433 210.006 40.718C210.006 40.2122 209.874 39.8377 209.612 39.5945C209.35 39.3415 208.913 39.2151 208.301 39.2151H206.903V42.1334ZM212.657 43.2278C212.56 43.2278 212.477 43.1986 212.409 43.1402C212.351 43.0721 212.322 42.9895 212.322 42.8922V35.9757C212.322 35.8785 212.351 35.8006 212.409 35.7423C212.477 35.6742 212.56 35.6401 212.657 35.6401H213.356C213.453 35.6401 213.531 35.6742 213.589 35.7423C213.657 35.8006 213.691 35.8785 213.691 35.9757V42.8922C213.691 42.9895 213.657 43.0721 213.589 43.1402C213.531 43.1986 213.453 43.2278 213.356 43.2278H212.657Z" fill="#105A2C"/>
<path d="M196.491 46.0001C196.394 46.0001 196.311 45.9661 196.243 45.898C196.185 45.8396 196.156 45.7618 196.156 45.6645V35.9757C196.156 35.8784 196.185 35.8006 196.243 35.7422C196.311 35.6741 196.394 35.6401 196.491 35.6401H197.161C197.258 35.6401 197.336 35.6741 197.394 35.7422C197.462 35.8006 197.496 35.8784 197.496 35.9757V36.6177C197.729 36.2967 198.04 36.0292 198.428 35.8152C198.817 35.6011 199.302 35.4941 199.885 35.4941C200.429 35.4941 200.89 35.5866 201.269 35.7714C201.658 35.9562 201.973 36.2091 202.216 36.5301C202.468 36.8512 202.658 37.216 202.784 37.6245C202.91 38.0331 202.978 38.4708 202.988 38.9378C202.998 39.0934 203.003 39.2588 203.003 39.4339C203.003 39.609 202.998 39.7744 202.988 39.93C202.978 40.3872 202.91 40.825 202.784 41.2432C202.658 41.6518 202.468 42.0166 202.216 42.3376C201.973 42.6489 201.658 42.9018 201.269 43.0964C200.89 43.2812 200.429 43.3736 199.885 43.3736C199.322 43.3736 198.846 43.2715 198.457 43.0672C198.079 42.8532 197.768 42.5905 197.525 42.2793V45.6645C197.525 45.7618 197.496 45.8396 197.438 45.898C197.379 45.9661 197.297 46.0001 197.19 46.0001H196.491ZM199.579 42.1917C200.084 42.1917 200.478 42.0847 200.759 41.8707C201.051 41.6469 201.259 41.36 201.386 41.0098C201.512 40.6499 201.585 40.2656 201.604 39.857C201.614 39.5749 201.614 39.2928 201.604 39.0107C201.585 38.6022 201.512 38.2228 201.386 37.8726C201.259 37.5127 201.051 37.2257 200.759 37.0117C200.478 36.7879 200.084 36.6761 199.579 36.6761C199.103 36.6761 198.715 36.7879 198.414 37.0117C198.122 37.2354 197.904 37.5224 197.758 37.8726C197.622 38.213 197.545 38.5632 197.525 38.9232C197.515 39.0788 197.511 39.2636 197.511 39.4777C197.511 39.6917 197.515 39.8814 197.525 40.0467C197.535 40.3872 197.613 40.7228 197.758 41.0536C197.914 41.3843 198.142 41.6567 198.443 41.8707C198.744 42.0847 199.123 42.1917 199.579 42.1917Z" fill="#105A2C"/>
<path d="M190.275 43.2278C190.178 43.2278 190.095 43.1986 190.027 43.1402C189.969 43.0721 189.94 42.9895 189.94 42.8922V36.8075H187.405C187.308 36.8075 187.225 36.7783 187.157 36.7199C187.099 36.6518 187.07 36.5691 187.07 36.4719V35.9757C187.07 35.8785 187.099 35.8006 187.157 35.7423C187.225 35.6742 187.308 35.6401 187.405 35.6401H193.815C193.912 35.6401 193.99 35.6742 194.048 35.7423C194.116 35.8006 194.15 35.8785 194.15 35.9757V36.4719C194.15 36.5691 194.116 36.6518 194.048 36.7199C193.99 36.7783 193.912 36.8075 193.815 36.8075H191.28V42.8922C191.28 42.9895 191.251 43.0721 191.193 43.1402C191.134 43.1986 191.052 43.2278 190.945 43.2278H190.275Z" fill="#105A2C"/>
<path d="M182.252 43.3736C181.562 43.3736 180.965 43.2423 180.46 42.9797C179.965 42.7073 179.581 42.323 179.309 41.8269C179.037 41.3211 178.891 40.7179 178.872 40.0175C178.862 39.8716 178.857 39.6771 178.857 39.4339C178.857 39.1907 178.862 38.9961 178.872 38.8502C178.891 38.1498 179.037 37.5516 179.309 37.0554C179.581 36.5496 179.965 36.1654 180.46 35.9027C180.965 35.6303 181.562 35.4941 182.252 35.4941C182.815 35.4941 183.296 35.572 183.694 35.7276C184.102 35.8833 184.437 36.0827 184.699 36.3259C184.961 36.5691 185.156 36.8317 185.282 37.1138C185.418 37.3959 185.491 37.6634 185.5 37.9164C185.51 38.0136 185.481 38.0915 185.413 38.1498C185.345 38.2082 185.262 38.2374 185.165 38.2374H184.466C184.369 38.2374 184.296 38.2179 184.248 38.179C184.199 38.1304 184.15 38.0525 184.102 37.9455C183.927 37.4689 183.689 37.1333 183.388 36.9387C183.087 36.7442 182.713 36.6469 182.266 36.6469C181.684 36.6469 181.208 36.8268 180.839 37.1868C180.479 37.5467 180.285 38.1255 180.256 38.9232C180.246 39.2734 180.246 39.6138 180.256 39.9446C180.285 40.752 180.479 41.3357 180.839 41.6956C181.208 42.0458 181.684 42.2209 182.266 42.2209C182.713 42.2209 183.087 42.1236 183.388 41.9291C183.689 41.7345 183.927 41.3989 184.102 40.9222C184.15 40.8152 184.199 40.7423 184.248 40.7034C184.296 40.6547 184.369 40.6304 184.466 40.6304H185.165C185.262 40.6304 185.345 40.6596 185.413 40.7179C185.481 40.7763 185.51 40.8541 185.5 40.9514C185.491 41.1557 185.447 41.3648 185.369 41.5789C185.292 41.7929 185.165 42.0117 184.99 42.2355C184.825 42.4495 184.617 42.644 184.364 42.8191C184.112 42.9845 183.806 43.1207 183.446 43.2277C183.097 43.325 182.698 43.3736 182.252 43.3736Z" fill="#105A2C"/>
<path d="M168.484 43.2278C168.387 43.2278 168.305 43.1986 168.237 43.1402C168.179 43.0721 168.149 42.9895 168.149 42.8922V35.9757C168.149 35.8785 168.179 35.8006 168.237 35.7423C168.305 35.6742 168.387 35.6401 168.484 35.6401H169.184C169.281 35.6401 169.359 35.6742 169.417 35.7423C169.485 35.8006 169.519 35.8785 169.519 35.9757V38.1207H171.034C172.024 38.1207 172.748 38.3542 173.204 38.8211C173.661 39.288 173.889 39.9204 173.889 40.718C173.889 41.5741 173.637 42.2064 173.132 42.6149C172.627 43.0235 171.869 43.2278 170.859 43.2278H168.484ZM169.504 42.1334H170.903C171.495 42.1334 171.927 42.0313 172.199 41.827C172.471 41.613 172.607 41.2433 172.607 40.718C172.607 40.2122 172.476 39.8377 172.214 39.5945C171.952 39.3415 171.515 39.2151 170.903 39.2151H169.504V42.1334ZM175.259 43.2278C175.161 43.2278 175.079 43.1986 175.011 43.1402C174.953 43.0721 174.923 42.9895 174.923 42.8922V35.9757C174.923 35.8785 174.953 35.8006 175.011 35.7423C175.079 35.6742 175.161 35.6401 175.259 35.6401H175.958C176.055 35.6401 176.133 35.6742 176.191 35.7423C176.259 35.8006 176.293 35.8785 176.293 35.9757V42.8922C176.293 42.9895 176.259 43.0721 176.191 43.1402C176.133 43.1986 176.055 43.2278 175.958 43.2278H175.259Z" fill="#105A2C"/>
<path d="M162.162 43.3736C161.414 43.3736 160.787 43.2326 160.282 42.9504C159.787 42.6586 159.408 42.25 159.146 41.7247C158.894 41.1897 158.758 40.572 158.738 39.8716C158.728 39.5798 158.724 39.2879 158.724 38.9961C158.724 38.7043 158.728 38.4124 158.738 38.1206C158.738 37.2354 158.811 36.5009 158.957 35.9173C159.102 35.3336 159.321 34.8569 159.612 34.4873C159.913 34.1079 160.292 33.7966 160.749 33.5534C161.205 33.3102 161.744 33.1011 162.366 32.926C162.987 32.7412 163.696 32.5466 164.492 32.3423C164.58 32.3229 164.662 32.3375 164.74 32.3861C164.828 32.4347 164.876 32.5028 164.886 32.5904L165.002 33.1886C165.022 33.2762 165.007 33.354 164.959 33.4221C164.92 33.4902 164.857 33.534 164.769 33.5534C164.041 33.7383 163.405 33.8988 162.861 34.035C162.317 34.1711 161.861 34.3316 161.492 34.5165C161.122 34.6916 160.826 34.9202 160.603 35.2023C160.38 35.4844 160.224 35.8589 160.137 36.3258C160.059 36.7928 160.035 37.391 160.064 38.1206L159.743 37.9893C159.792 37.6294 159.942 37.3035 160.195 37.0116C160.457 36.7101 160.783 36.4669 161.171 36.2821C161.559 36.0972 161.972 36.0048 162.409 36.0048C163.079 36.0048 163.643 36.1459 164.099 36.428C164.565 36.7101 164.92 37.0943 165.163 37.5807C165.415 38.0671 165.556 38.6265 165.585 39.2588C165.604 39.5895 165.604 39.8765 165.585 40.1197C165.556 40.752 165.41 41.3162 165.148 41.8123C164.886 42.2987 164.507 42.6829 164.012 42.965C163.516 43.2374 162.9 43.3736 162.162 43.3736ZM162.162 42.2938C162.773 42.2938 163.259 42.1041 163.618 41.7247C163.978 41.3454 164.167 40.7909 164.187 40.0613C164.196 39.964 164.201 39.8522 164.201 39.7257C164.201 39.5992 164.196 39.4679 164.187 39.3317C164.167 38.5924 163.978 38.0331 163.618 37.6537C163.269 37.2743 162.827 37.0846 162.293 37.0846C161.681 37.0846 161.176 37.2743 160.778 37.6537C160.38 38.0331 160.166 38.5924 160.137 39.3317C160.127 39.4679 160.122 39.5992 160.122 39.7257C160.122 39.8522 160.127 39.964 160.137 40.0613C160.166 40.7909 160.36 41.3454 160.719 41.7247C161.079 42.1041 161.559 42.2938 162.162 42.2938Z" fill="#105A2C"/>
</svg>
