<svg width="30" height="30" viewBox="0 0 30 30" fill="none" xmlns="http://www.w3.org/2000/svg">
<g clip-path="url(#clip0_713_1359)">
<path d="M9.45282 2.66362C9.56814 2.34914 9.91682 2.18754 10.2313 2.30284C10.5458 2.41816 10.7074 2.76684 10.5921 3.08132L5.76808 16.2175C5.65276 16.532 5.30408 16.6936 4.9896 16.5783C4.67512 16.463 4.51353 16.1143 4.62883 15.7998L9.45282 2.66362Z" fill="#333333"/>
<path d="M11.7643 0C12.425 0 13.0234 0.268061 13.4563 0.700962C13.8892 1.13386 14.1573 1.73231 14.1573 2.39286C14.1573 3.05339 13.8892 3.65197 13.4563 4.08487C13.0234 4.51777 12.4248 4.78583 11.7643 4.78583C11.1038 4.78583 10.5052 4.51777 10.0723 4.08487C9.6394 3.65197 9.37134 3.05339 9.37134 2.39286C9.37134 1.73233 9.6394 1.13386 10.0723 0.700962C10.5052 0.268061 11.1037 0 11.7643 0ZM12.597 1.5603C12.3839 1.34725 12.0894 1.21531 11.7643 1.21531C11.4392 1.21531 11.1447 1.34725 10.9316 1.5603C10.7186 1.77335 10.5866 2.06784 10.5866 2.39285C10.5866 2.71785 10.7186 3.01247 10.9316 3.22552C11.1447 3.43856 11.4393 3.5705 11.7643 3.5705C12.0893 3.5705 12.3839 3.43856 12.597 3.22552C12.81 3.01247 12.942 2.71785 12.942 2.39285C12.942 2.06784 12.81 1.77333 12.597 1.5603Z" fill="#333333"/>
<path d="M13.0812 2.67012C12.8676 2.41329 12.9026 2.03159 13.1594 1.81796C13.4163 1.60432 13.798 1.63937 14.0116 1.89619L22.9145 12.5799C23.1281 12.8367 23.0931 13.2184 22.8363 13.432C22.5794 13.6456 22.1977 13.6106 21.9841 13.3538L13.0812 2.67012Z" fill="#333333"/>
<path d="M0.716647 16.1822L26.8506 11.574C27.1808 11.5163 27.4956 11.7375 27.5532 12.0678L29.7772 24.6803C29.8348 25.0105 29.6137 25.3253 29.2834 25.3829L3.14931 29.991C2.81904 30.0486 2.50431 29.8275 2.44666 29.4972L0.222822 16.8848C0.16517 16.5545 0.386334 16.2398 0.716616 16.1822H0.716647ZM26.4623 12.8757L1.52449 17.273L3.53744 28.6893L28.4754 24.2921L26.4624 12.8756V12.8757H26.4623Z" fill="#333333"/>
<path d="M13.7759 23.9262L13.6281 23.0882L11.3041 23.4981C10.9745 23.5561 10.6584 23.3346 10.6002 23.0052L10.527 22.5899C10.5049 22.4643 10.5191 22.3503 10.5717 22.234L12.6613 17.616C12.7465 17.4276 12.9054 17.304 13.1091 17.2682L13.3437 17.2268C13.6732 17.1687 13.9894 17.3902 14.0475 17.7196L14.7407 21.651L15.0285 21.6003C15.3581 21.5422 15.6742 21.7636 15.7323 22.0931L15.7335 22.1001C15.7917 22.4295 15.5703 22.7458 15.2407 22.8039L14.9529 22.8546L15.1008 23.6926C15.1588 24.022 14.9373 24.3383 14.6079 24.3964L14.4797 24.419C14.1502 24.477 13.834 24.2556 13.7758 23.9262L13.7759 23.9262ZM13.4159 21.8846L12.9857 19.4444L11.7753 22.174L13.416 21.8846H13.4159Z" fill="#333333"/>
<path d="M19.9492 16.8866L19.9363 16.8132C19.8782 16.4838 20.0996 16.1675 20.4292 16.1095L23.912 15.4954C24.2414 15.4372 24.5577 15.6586 24.6158 15.9881L24.6429 16.1419C24.6703 16.2971 24.642 16.4395 24.5578 16.5725C24.2875 16.9994 24.0332 17.5505 23.7954 18.2275C23.5213 19.0074 23.3507 19.8176 23.2823 20.6541C23.2333 21.2578 23.2312 21.8067 23.2769 22.3019C23.306 22.6176 23.0896 22.9009 22.7774 22.9559L22.6688 22.975C22.4932 23.006 22.3301 22.9655 22.1896 22.8558C22.049 22.7461 21.9701 22.598 21.9573 22.4201C21.9009 21.6311 21.9527 20.8118 22.111 19.9607C22.3148 18.8659 22.666 17.8592 23.1666 16.9363L20.6531 17.3795C20.3236 17.4375 20.0074 17.2161 19.9492 16.8867V16.8866Z" fill="#333333"/>
<path d="M9.98415 24.5172L9.99742 24.5922C10.0554 24.9217 9.83402 25.238 9.50458 25.296L6.06063 25.9033C5.85752 25.9391 5.66661 25.8781 5.522 25.7311C5.3775 25.584 5.31949 25.3922 5.35859 25.1897C5.39759 24.9879 5.4562 24.7873 5.53335 24.5874C5.71708 24.1114 6.12989 23.4504 6.76902 22.604C7.28625 21.9216 7.59475 21.4644 7.69834 21.2352C7.83637 20.9195 7.88196 20.6235 7.83327 20.3476C7.77968 20.0434 7.65683 19.8235 7.46318 19.6878C7.26963 19.5523 7.0292 19.5106 6.73996 19.5616C6.45408 19.6121 6.24319 19.7384 6.10383 19.9396C6.02895 20.05 5.98062 20.1903 5.95945 20.3605C5.9232 20.6504 5.6933 20.8692 5.40203 20.8909L5.24617 20.9027C5.05525 20.9169 4.88492 20.8499 4.75477 20.7093C4.62475 20.5687 4.57115 20.3936 4.60035 20.2043C4.66374 19.7928 4.81435 19.4561 5.05394 19.1956C5.42452 18.7922 5.93135 18.5337 6.57466 18.4202C7.27945 18.2959 7.86679 18.3895 8.33582 18.6976C8.80532 19.0073 9.08966 19.4439 9.1893 20.0091C9.24589 20.3299 9.24169 20.6459 9.1783 20.9572C9.11478 21.2683 8.98559 21.6048 8.79217 21.9662C8.66323 22.2066 8.41765 22.5636 8.05687 23.0352C7.69443 23.507 7.46679 23.8197 7.37492 23.9696C7.28318 24.1195 7.21056 24.2625 7.16092 24.3982L9.28033 24.0244C9.60989 23.9663 9.92604 24.1878 9.98417 24.5172L9.98415 24.5172Z" fill="#333333"/>
<path d="M18.1013 16.0336C18.1839 15.709 18.5141 15.5127 18.8388 15.5951C19.1634 15.6775 19.3598 16.0079 19.2774 16.3325L17.157 24.6044C17.0746 24.9291 16.7442 25.1255 16.4196 25.0431C16.0951 24.9605 15.8987 24.6302 15.9811 24.3056L18.1013 16.0336Z" fill="#333333"/>
</g>
<defs>
<clipPath id="clip0_713_1359">
<rect width="30" height="30" fill="white"/>
</clipPath>
</defs>
</svg>
